<svg xmlns="http://www.w3.org/2000/svg" width="1024" height="1024" viewBox="0 0 1024 1024" fill="none">
<defs>
<filter id="shadow" x="-20%" y="-20%" width="140%" height="150%"><feDropShadow dx="0" dy="18" stdDeviation="18" flood-color="#111827" flood-opacity="0.10"/></filter>
<filter id="smallShadow" x="-30%" y="-30%" width="160%" height="160%"><feDropShadow dx="0" dy="8" stdDeviation="8" flood-color="#111827" flood-opacity="0.12"/></filter>
<linearGradient id="redGrad" x1="0" y1="0" x2="1" y2="1"><stop offset="0" stop-color="#FF6B6D"/><stop offset="1" stop-color="#FF4D4F"/></linearGradient>
<linearGradient id="softGrad" x1="0" y1="0" x2="1" y2="1"><stop offset="0" stop-color="#FFF5F5"/><stop offset="1" stop-color="#FFE2E3"/></linearGradient>
</defs>


<path d="M 117,555 C 117,340.5 294.75,225 512,225 C 788.5,225 907,406.5 907,555 C 907,792.6 725.3,885 512,885 C 235.5,885 117,703.5 117,555 Z" fill="url(#softGrad)" opacity="1"/>
<g filter="url(#shadow)">
<rect x="340" y="170" width="310" height="550" rx="38" fill="#FFFFFF"/>
<rect x="362" y="224" width="266" height="462" rx="20" fill="#F7F8FA"/>
<rect x="459.0" y="194" width="72" height="8" rx="4" fill="#E5E7EB"/>
<circle cx="495" cy="370" r="78" fill="#FFE8E8"/><path d="M495 326V410M455 370H495" stroke="#FF4D4F" stroke-width="18" stroke-linecap="round"/><rect x="396" y="522" width="198" height="54" rx="27" fill="#FF4D4F"/>
</g>
<path d="M668 290C724 344 746 426 724 498" stroke="#FF4D4F" stroke-width="18" stroke-linecap="round" fill="none"/><path d="M720 500L764 492L735 458" stroke="#FF4D4F" stroke-width="18" stroke-linecap="round" stroke-linejoin="round" fill="none"/>

</svg>