<svg xmlns="http://www.w3.org/2000/svg" width="1400" height="500" viewBox="0 0 1400 500" fill="none">
<defs>
<filter id="shadow" x="-20%" y="-20%" width="140%" height="150%"><feDropShadow dx="0" dy="18" stdDeviation="18" flood-color="#111827" flood-opacity="0.10"/></filter>
<filter id="smallShadow" x="-30%" y="-30%" width="160%" height="160%"><feDropShadow dx="0" dy="8" stdDeviation="8" flood-color="#111827" flood-opacity="0.12"/></filter>
<linearGradient id="redGrad" x1="0" y1="0" x2="1" y2="1"><stop offset="0" stop-color="#FF6B6D"/><stop offset="1" stop-color="#FF4D4F"/></linearGradient>
<linearGradient id="softGrad" x1="0" y1="0" x2="1" y2="1"><stop offset="0" stop-color="#FFF5F5"/><stop offset="1" stop-color="#FFE2E3"/></linearGradient>
</defs>


<rect x="60" y="82" width="336" height="336" rx="96" fill="url(#redGrad)" filter="url(#smallShadow)"/>
<g transform="translate(76 92) scale(1.04)">
  <path d="M94 58H206C224 58 239 73 239 91V222C239 241 224 256 205 256H95C76 256 61 241 61 222V91C61 73 76 58 94 58Z" fill="#FFFFFF"/>
  <path d="M104 82C104 45 124 23 150 23C176 23 196 45 196 82" stroke="#FFFFFF" stroke-width="20" stroke-linecap="round" fill="none"/>
  <path d="M179 132C169 122 157 117 144 118C117 120 96 143 98 171C100 199 123 219 151 217C164 216 176 210 185 201" stroke="#FF4D4F" stroke-width="27" stroke-linecap="round" fill="none"/>
  <circle cx="194" cy="167" r="15" fill="#FF4D4F"/>
</g>
<text x="450" y="236" font-family="Inter, Arial, sans-serif" font-size="112" font-weight="800" fill="#1F2937">Clarke</text>
<text x="455" y="315" font-family="Inter, Arial, sans-serif" font-size="46" font-weight="600" fill="#6B7280">Shopping App</text>
<circle cx="1015" cy="160" r="18" fill="#FF4D4F"/><circle cx="1068" cy="220" r="10" fill="#FBBF24"/>

</svg>