<svg xmlns="http://www.w3.org/2000/svg" width="1024" height="1024" viewBox="0 0 1024 1024" fill="none">
<defs>
<filter id="shadow" x="-20%" y="-20%" width="140%" height="150%"><feDropShadow dx="0" dy="18" stdDeviation="18" flood-color="#111827" flood-opacity="0.10"/></filter>
<filter id="smallShadow" x="-30%" y="-30%" width="160%" height="160%"><feDropShadow dx="0" dy="8" stdDeviation="8" flood-color="#111827" flood-opacity="0.12"/></filter>
<linearGradient id="redGrad" x1="0" y1="0" x2="1" y2="1"><stop offset="0" stop-color="#FF6B6D"/><stop offset="1" stop-color="#FF4D4F"/></linearGradient>
<linearGradient id="softGrad" x1="0" y1="0" x2="1" y2="1"><stop offset="0" stop-color="#FFF5F5"/><stop offset="1" stop-color="#FFE2E3"/></linearGradient>
</defs>


<path d="M 112,555 C 112,334.0 292.0,215 512,215 C 792.0,215 912,402.0 912,555 C 912,799.8 728.0,895 512,895 C 232.0,895 112,708.0 112,555 Z" fill="url(#softGrad)" opacity="1"/>
<g filter="url(#shadow)">
<rect x="338" y="162" width="300" height="570" rx="38" fill="#FFFFFF"/>
<rect x="360" y="216" width="256" height="482" rx="20" fill="#F7F8FA"/>
<rect x="452.0" y="186" width="72" height="8" rx="4" fill="#E5E7EB"/>
<circle cx="488" cy="285" r="48" fill="#FF4D4F"/><rect x="390" y="370" width="196" height="36" rx="18" fill="#E5E7EB"/><rect x="390" y="435" width="196" height="36" rx="18" fill="#E5E7EB"/><rect x="390" y="526" width="196" height="54" rx="27" fill="#FF4D4F"/>
</g>
<path d="M210 706C290 630 340 596 424 590" stroke="#FF4D4F" stroke-width="20" stroke-linecap="round" opacity="0.24"/><circle cx="720" cy="360" r="62" fill="#FF4D4F"/><path d="M692.1 358.76 L712.56 379.84 L752.24 340.16" stroke="#FFFFFF" stroke-width="18" stroke-linecap="round" stroke-linejoin="round" fill="none"/>

</svg>