<svg xmlns="http://www.w3.org/2000/svg" width="1024" height="1024" viewBox="0 0 1024 1024" fill="none">
<defs>
<filter id="shadow" x="-20%" y="-20%" width="140%" height="150%"><feDropShadow dx="0" dy="18" stdDeviation="18" flood-color="#111827" flood-opacity="0.10"/></filter>
<filter id="smallShadow" x="-30%" y="-30%" width="160%" height="160%"><feDropShadow dx="0" dy="8" stdDeviation="8" flood-color="#111827" flood-opacity="0.12"/></filter>
<linearGradient id="redGrad" x1="0" y1="0" x2="1" y2="1"><stop offset="0" stop-color="#FF6B6D"/><stop offset="1" stop-color="#FF4D4F"/></linearGradient>
<linearGradient id="softGrad" x1="0" y1="0" x2="1" y2="1"><stop offset="0" stop-color="#FFF5F5"/><stop offset="1" stop-color="#FFE2E3"/></linearGradient>
</defs>


<path d="M 127,560 C 127,345.5 300.25,230 512,230 C 781.5,230 897,411.5 897,560 C 897,797.6 719.9,890 512,890 C 242.5,890 127,708.5 127,560 Z" fill="url(#softGrad)" opacity="1"/>
<g filter="url(#shadow)">
<rect x="298" y="160" width="318" height="560" rx="38" fill="#FFFFFF"/>
<rect x="320" y="214" width="274" height="472" rx="20" fill="#F7F8FA"/>
<rect x="421.0" y="184" width="72" height="8" rx="4" fill="#E5E7EB"/>
<circle cx="456" cy="284" r="48" fill="#FFE8E8"/><path d="M425 292C442 310 470 310 488 292" stroke="#FF4D4F" stroke-width="10" stroke-linecap="round"/><rect x="352" y="382" width="208" height="32" rx="16" fill="#E5E7EB"/><rect x="352" y="438" width="208" height="32" rx="16" fill="#E5E7EB"/><rect x="352" y="494" width="208" height="32" rx="16" fill="#E5E7EB"/><rect x="352" y="586" width="208" height="54" rx="27" fill="#FF4D4F"/>
</g>
<circle cx="704" cy="380" r="68" fill="#FF4D4F"/><path d="M704 348V412M672 380H736" stroke="#FFFFFF" stroke-width="18" stroke-linecap="round"/><path d="M254 687 L258.5 700.5 L272 705 L258.5 709.5 L254 723 L249.5 709.5 L236 705 L249.5 700.5 Z" fill="#FBBF24"/>

</svg>