<svg xmlns="http://www.w3.org/2000/svg" width="1024" height="1024" viewBox="0 0 1024 1024" fill="none">
<defs>
<filter id="shadow" x="-20%" y="-20%" width="140%" height="150%"><feDropShadow dx="0" dy="18" stdDeviation="18" flood-color="#111827" flood-opacity="0.10"/></filter>
<filter id="smallShadow" x="-30%" y="-30%" width="160%" height="160%"><feDropShadow dx="0" dy="8" stdDeviation="8" flood-color="#111827" flood-opacity="0.12"/></filter>
<linearGradient id="redGrad" x1="0" y1="0" x2="1" y2="1"><stop offset="0" stop-color="#FF6B6D"/><stop offset="1" stop-color="#FF4D4F"/></linearGradient>
<linearGradient id="softGrad" x1="0" y1="0" x2="1" y2="1"><stop offset="0" stop-color="#FFF5F5"/><stop offset="1" stop-color="#FFE2E3"/></linearGradient>
</defs>


<path d="M 117,555 C 117,340.5 294.75,225 512,225 C 788.5,225 907,406.5 907,555 C 907,792.6 725.3,885 512,885 C 235.5,885 117,703.5 117,555 Z" fill="url(#softGrad)" opacity="1"/><g filter="url(#shadow)"><rect x="304" y="188" width="416" height="596" rx="48" fill="#FFFFFF"/><rect x="368" y="282" width="288" height="30" rx="15" fill="#E5E7EB"/><rect x="368" y="354" width="214" height="30" rx="15" fill="#E5E7EB"/><rect x="368" y="426" width="288" height="30" rx="15" fill="#E5E7EB"/><path d="M360 530H664" stroke="#E5E7EB" stroke-width="12" stroke-linecap="round"/><rect x="368" y="600" width="288" height="68" rx="34" fill="#FF4D4F"/></g><circle cx="704" cy="245" r="56" fill="#FF4D4F"/><path d="M678.8 243.88 L697.28 262.92 L733.12 227.07999999999998" stroke="#FFFFFF" stroke-width="18" stroke-linecap="round" stroke-linejoin="round" fill="none"/>

</svg>