<svg xmlns="http://www.w3.org/2000/svg" width="1024" height="1024" viewBox="0 0 1024 1024" fill="none">
<defs>
<filter id="shadow" x="-20%" y="-20%" width="140%" height="150%"><feDropShadow dx="0" dy="18" stdDeviation="18" flood-color="#111827" flood-opacity="0.10"/></filter>
<filter id="smallShadow" x="-30%" y="-30%" width="160%" height="160%"><feDropShadow dx="0" dy="8" stdDeviation="8" flood-color="#111827" flood-opacity="0.12"/></filter>
<linearGradient id="redGrad" x1="0" y1="0" x2="1" y2="1"><stop offset="0" stop-color="#FF6B6D"/><stop offset="1" stop-color="#FF4D4F"/></linearGradient>
<linearGradient id="softGrad" x1="0" y1="0" x2="1" y2="1"><stop offset="0" stop-color="#FFF5F5"/><stop offset="1" stop-color="#FFE2E3"/></linearGradient>
</defs>


<path d="M 107,555 C 107,337.25 289.25,220 512,220 C 795.5,220 917,404.25 917,555 C 917,796.2 730.7,890 512,890 C 228.5,890 107,705.75 107,555 Z" fill="url(#softGrad)" opacity="1"/><path d="M220 644C330 542 446 694 560 580C656 486 714 430 818 500" stroke="#E5E7EB" stroke-width="24" stroke-linecap="round" stroke-dasharray="12 34"/>
<g transform="translate(260 470) scale(1.2)">
 <rect x="22" y="70" width="170" height="88" rx="18" fill="#FF4D4F"/>
 <path d="M192 95H253L292 134V158H192V95Z" fill="#E83F42"/>
 <path d="M215 111H247L267 132H215V111Z" fill="#FFFFFF" opacity="0.9"/>
 <circle cx="82" cy="174" r="28" fill="#1F2937"/>
 <circle cx="82" cy="174" r="12" fill="#FFFFFF"/>
 <circle cx="238" cy="174" r="28" fill="#1F2937"/>
 <circle cx="238" cy="174" r="12" fill="#FFFFFF"/>
</g>
<g transform="translate(606 210) scale(0.95)">
 <path d="M128 242C128 242 215 159 215 91C215 42 177 12 128 12C79 12 41 42 41 91C41 159 128 242 128 242Z" fill="#FF4D4F"/>
 <circle cx="128" cy="93" r="38" fill="#FFFFFF"/>
</g><circle cx="770" cy="500" r="34" fill="#FFE8E8" stroke="#FF4D4F" stroke-width="10"/>

</svg>