<svg xmlns="http://www.w3.org/2000/svg" width="1024" height="1024" viewBox="0 0 1024 1024" fill="none">
<defs>
<filter id="shadow" x="-20%" y="-20%" width="140%" height="150%"><feDropShadow dx="0" dy="18" stdDeviation="18" flood-color="#111827" flood-opacity="0.10"/></filter>
<filter id="smallShadow" x="-30%" y="-30%" width="160%" height="160%"><feDropShadow dx="0" dy="8" stdDeviation="8" flood-color="#111827" flood-opacity="0.12"/></filter>
<linearGradient id="redGrad" x1="0" y1="0" x2="1" y2="1"><stop offset="0" stop-color="#FF6B6D"/><stop offset="1" stop-color="#FF4D4F"/></linearGradient>
<linearGradient id="softGrad" x1="0" y1="0" x2="1" y2="1"><stop offset="0" stop-color="#FFF5F5"/><stop offset="1" stop-color="#FFE2E3"/></linearGradient>
</defs>


<path d="M 117,555 C 117,340.5 294.75,225 512,225 C 788.5,225 907,406.5 907,555 C 907,792.6 725.3,885 512,885 C 235.5,885 117,703.5 117,555 Z" fill="url(#softGrad)" opacity="1"/><g filter="url(#shadow)"><path d="M244 356H780V458C740 458 708 490 708 530C708 570 740 602 780 602V704H244V602C284 602 316 570 316 530C316 490 284 458 244 458V356Z" fill="#FF4D4F"/><circle cx="430" cy="462" r="34" fill="#FFFFFF"/><circle cx="596" cy="598" r="34" fill="#FFFFFF"/><path d="M414 620L612 440" stroke="#FFFFFF" stroke-width="22" stroke-linecap="round"/><path d="M684 396V666" stroke="#FFFFFF" stroke-width="12" stroke-dasharray="20 20" opacity="0.55"/></g><path d="M748 282 L752.5 295.5 L766 300 L752.5 304.5 L748 318 L743.5 304.5 L730 300 L743.5 295.5 Z" fill="#FBBF24"/>

</svg>