<svg xmlns="http://www.w3.org/2000/svg" width="1024" height="1024" viewBox="0 0 1024 1024" fill="none">
<defs>
<filter id="shadow" x="-20%" y="-20%" width="140%" height="150%"><feDropShadow dx="0" dy="18" stdDeviation="18" flood-color="#111827" flood-opacity="0.10"/></filter>
<filter id="smallShadow" x="-30%" y="-30%" width="160%" height="160%"><feDropShadow dx="0" dy="8" stdDeviation="8" flood-color="#111827" flood-opacity="0.12"/></filter>
<linearGradient id="redGrad" x1="0" y1="0" x2="1" y2="1"><stop offset="0" stop-color="#FF6B6D"/><stop offset="1" stop-color="#FF4D4F"/></linearGradient>
<linearGradient id="softGrad" x1="0" y1="0" x2="1" y2="1"><stop offset="0" stop-color="#FFF5F5"/><stop offset="1" stop-color="#FFE2E3"/></linearGradient>
</defs>


<path d="M 122,560 C 122,355.25 297.5,245 512,245 C 785.0,245 902,418.25 902,560 C 902,786.8 722.6,875 512,875 C 239.0,875 122,701.75 122,560 Z" fill="url(#softGrad)" opacity="1"/>
<g transform="translate(300 345) scale(1.75)" stroke="#FF4D4F" stroke-width="18" stroke-linecap="round" stroke-linejoin="round" fill="none">
 <path d="M12 18H42L62 126H183L206 54H61"/>
 <circle cx="83" cy="168" r="17" fill="#FFFFFF"/>
 <circle cx="170" cy="168" r="17" fill="#FFFFFF"/>
</g><path d="M376 290L648 290" stroke="#E5E7EB" stroke-width="20" stroke-linecap="round"/><circle cx="512" cy="230" r="44" fill="#FFE8E8"/><path d="M494 230H530" stroke="#FF4D4F" stroke-width="16" stroke-linecap="round"/><circle cx="750" cy="640" r="14" fill="#FBBF24" opacity="0.9"/>

</svg>