<svg xmlns="http://www.w3.org/2000/svg" width="1024" height="1024" viewBox="0 0 1024 1024" fill="none">
<defs>
<filter id="shadow" x="-20%" y="-20%" width="140%" height="150%"><feDropShadow dx="0" dy="18" stdDeviation="18" flood-color="#111827" flood-opacity="0.10"/></filter>
<filter id="smallShadow" x="-30%" y="-30%" width="160%" height="160%"><feDropShadow dx="0" dy="8" stdDeviation="8" flood-color="#111827" flood-opacity="0.12"/></filter>
<linearGradient id="redGrad" x1="0" y1="0" x2="1" y2="1"><stop offset="0" stop-color="#FF6B6D"/><stop offset="1" stop-color="#FF4D4F"/></linearGradient>
<linearGradient id="softGrad" x1="0" y1="0" x2="1" y2="1"><stop offset="0" stop-color="#FFF5F5"/><stop offset="1" stop-color="#FFE2E3"/></linearGradient>
</defs>


<path d="M 122,555 C 122,347.0 297.5,235 512,235 C 785.0,235 902,411.0 902,555 C 902,785.4 722.6,875 512,875 C 239.0,875 122,699.0 122,555 Z" fill="url(#softGrad)" opacity="1"/><path transform="translate(332 268) scale(1.38)" d="M128 229C86 196 34 157 34 101C34 66 59 40 92 40C111 40 123 49 128 59C133 49 145 40 164 40C197 40 222 66 222 101C222 157 170 196 128 229Z" fill="#FFE8E8"/><path d="M512 585C454 539 382 484 382 406C382 356 418 318 464 318C490 318 507 331 512 345C519 331 536 318 562 318C608 318 644 356 644 406C644 484 572 539 512 585Z" stroke="#FF4D4F" stroke-width="22" fill="none" stroke-linejoin="round"/>
<path d="M352 694H672" stroke="#E5E7EB" stroke-width="22" stroke-linecap="round"/><path d="M420 746H604" stroke="#E5E7EB" stroke-width="18" stroke-linecap="round"/>

</svg>