<svg xmlns="http://www.w3.org/2000/svg" width="1024" height="1024" viewBox="0 0 1024 1024" fill="none">
<defs>
<filter id="shadow" x="-20%" y="-20%" width="140%" height="150%"><feDropShadow dx="0" dy="18" stdDeviation="18" flood-color="#111827" flood-opacity="0.10"/></filter>
<filter id="smallShadow" x="-30%" y="-30%" width="160%" height="160%"><feDropShadow dx="0" dy="8" stdDeviation="8" flood-color="#111827" flood-opacity="0.12"/></filter>
<linearGradient id="redGrad" x1="0" y1="0" x2="1" y2="1"><stop offset="0" stop-color="#FF6B6D"/><stop offset="1" stop-color="#FF4D4F"/></linearGradient>
<linearGradient id="softGrad" x1="0" y1="0" x2="1" y2="1"><stop offset="0" stop-color="#FFF5F5"/><stop offset="1" stop-color="#FFE2E3"/></linearGradient>
</defs>


<path d="M 122,555 C 122,340.5 297.5,225 512,225 C 785.0,225 902,406.5 902,555 C 902,792.6 722.6,885 512,885 C 239.0,885 122,703.5 122,555 Z" fill="url(#softGrad)" opacity="1"/><path d="M230 620L408 502L590 612L794 476" stroke="#E5E7EB" stroke-width="24" stroke-linecap="round" stroke-linejoin="round"/>
<g transform="translate(382 186) scale(1.15)">
 <path d="M128 242C128 242 215 159 215 91C215 42 177 12 128 12C79 12 41 42 41 91C41 159 128 242 128 242Z" fill="#FF4D4F"/>
 <circle cx="128" cy="93" r="38" fill="#FFFFFF"/>
</g><path d="M330 710H694" stroke="#E5E7EB" stroke-width="22" stroke-linecap="round"/><path d="M414 762H610" stroke="#E5E7EB" stroke-width="18" stroke-linecap="round"/>

</svg>