<svg xmlns="http://www.w3.org/2000/svg" width="1024" height="1024" viewBox="0 0 1024 1024" fill="none">
<defs>
<filter id="shadow" x="-20%" y="-20%" width="140%" height="150%"><feDropShadow dx="0" dy="18" stdDeviation="18" flood-color="#111827" flood-opacity="0.10"/></filter>
<filter id="smallShadow" x="-30%" y="-30%" width="160%" height="160%"><feDropShadow dx="0" dy="8" stdDeviation="8" flood-color="#111827" flood-opacity="0.12"/></filter>
<linearGradient id="redGrad" x1="0" y1="0" x2="1" y2="1"><stop offset="0" stop-color="#FF6B6D"/><stop offset="1" stop-color="#FF4D4F"/></linearGradient>
<linearGradient id="softGrad" x1="0" y1="0" x2="1" y2="1"><stop offset="0" stop-color="#FFF5F5"/><stop offset="1" stop-color="#FFE2E3"/></linearGradient>
</defs>


<path d="M 122,555 C 122,340.5 297.5,225 512,225 C 785.0,225 902,406.5 902,555 C 902,792.6 722.6,885 512,885 C 239.0,885 122,703.5 122,555 Z" fill="url(#softGrad)" opacity="1"/><g filter="url(#shadow)"><rect x="270" y="285" width="484" height="300" rx="42" fill="#FFFFFF"/><circle cx="360" cy="385" r="44" fill="#FFE8E8"/><rect x="430" y="352" width="230" height="24" rx="12" fill="#E5E7EB"/><rect x="430" y="398" width="180" height="24" rx="12" fill="#E5E7EB"/><path d="M340 500H684" stroke="#E5E7EB" stroke-width="16" stroke-linecap="round"/></g>
<g transform="translate(348 616) scale(0.75)"><path d="M33 4L42 22L62 25L47 39L51 59L33 49L15 59L19 39L4 25L24 22L33 4Z" fill="#FBBF24"/><path transform="translate(84 0)" d="M33 4L42 22L62 25L47 39L51 59L33 49L15 59L19 39L4 25L24 22L33 4Z" fill="#FBBF24"/><path transform="translate(168 0)" d="M33 4L42 22L62 25L47 39L51 59L33 49L15 59L19 39L4 25L24 22L33 4Z" fill="#FBBF24"/></g>

</svg>