<svg xmlns="http://www.w3.org/2000/svg" width="1024" height="1024" viewBox="0 0 1024 1024" fill="none">
<defs>
<filter id="shadow" x="-20%" y="-20%" width="140%" height="150%"><feDropShadow dx="0" dy="18" stdDeviation="18" flood-color="#111827" flood-opacity="0.10"/></filter>
<filter id="smallShadow" x="-30%" y="-30%" width="160%" height="160%"><feDropShadow dx="0" dy="8" stdDeviation="8" flood-color="#111827" flood-opacity="0.12"/></filter>
<linearGradient id="redGrad" x1="0" y1="0" x2="1" y2="1"><stop offset="0" stop-color="#FF6B6D"/><stop offset="1" stop-color="#FF4D4F"/></linearGradient>
<linearGradient id="softGrad" x1="0" y1="0" x2="1" y2="1"><stop offset="0" stop-color="#FFF5F5"/><stop offset="1" stop-color="#FFE2E3"/></linearGradient>
</defs>


<path d="M 122,555 C 122,340.5 297.5,225 512,225 C 785.0,225 902,406.5 902,555 C 902,792.6 722.6,885 512,885 C 239.0,885 122,703.5 122,555 Z" fill="url(#softGrad)" opacity="1"/><g filter="url(#shadow)"><rect x="280" y="286" width="464" height="330" rx="48" fill="#FFFFFF"/><rect x="348" y="395" width="328" height="44" rx="22" fill="#E5E7EB"/><rect x="348" y="468" width="236" height="44" rx="22" fill="#E5E7EB"/><rect x="348" y="540" width="328" height="56" rx="28" fill="#FF4D4F"/></g>
<g transform="translate(394 120) scale(0.9)">
 <rect x="45" y="92" width="170" height="142" rx="28" fill="#FF4D4F"/>
 <path d="M83 96V72C83 44 103 24 130 24C157 24 177 44 177 72V96" stroke="#1F2937" stroke-width="22" stroke-linecap="round" fill="none" opacity="0.92"/>
 <circle cx="130" cy="154" r="18" fill="#FFFFFF"/>
 <rect x="120" y="166" width="20" height="42" rx="10" fill="#FFFFFF"/>
</g><path d="M694 264L792 166" stroke="#FF4D4F" stroke-width="22" stroke-linecap="round"/><circle cx="812" cy="146" r="20" fill="#FF4D4F"/>

</svg>