<svg xmlns="http://www.w3.org/2000/svg" width="1440" height="640" viewBox="0 0 1440 640" fill="none">
<defs>
<filter id="shadow" x="-20%" y="-20%" width="140%" height="150%"><feDropShadow dx="0" dy="18" stdDeviation="18" flood-color="#111827" flood-opacity="0.10"/></filter>
<filter id="smallShadow" x="-30%" y="-30%" width="160%" height="160%"><feDropShadow dx="0" dy="8" stdDeviation="8" flood-color="#111827" flood-opacity="0.12"/></filter>
<linearGradient id="redGrad" x1="0" y1="0" x2="1" y2="1"><stop offset="0" stop-color="#FF6B6D"/><stop offset="1" stop-color="#FF4D4F"/></linearGradient>
<linearGradient id="softGrad" x1="0" y1="0" x2="1" y2="1"><stop offset="0" stop-color="#FFF5F5"/><stop offset="1" stop-color="#FFE2E3"/></linearGradient>
</defs>


<rect width="1440" height="640" rx="80" fill="#FFF3F3"/><circle cx="1190" cy="520" r="230" fill="#FF4D4F" opacity="0.09"/><circle cx="180" cy="132" r="160" fill="#FF4D4F" opacity="0.10"/>
<g transform="translate(760 198) scale(1.55)">
<g transform="translate(0 0) scale(1)">
 <rect x="22" y="70" width="170" height="88" rx="18" fill="#FF4D4F"/>
 <path d="M192 95H253L292 134V158H192V95Z" fill="#E83F42"/>
 <path d="M215 111H247L267 132H215V111Z" fill="#FFFFFF" opacity="0.9"/>
 <circle cx="82" cy="174" r="28" fill="#1F2937"/>
 <circle cx="82" cy="174" r="12" fill="#FFFFFF"/>
 <circle cx="238" cy="174" r="28" fill="#1F2937"/>
 <circle cx="238" cy="174" r="12" fill="#FFFFFF"/>
</g></g><path d="M260 400H710" stroke="#FF4D4F" stroke-width="26" stroke-linecap="round" opacity="0.24"/><path d="M330 468H622" stroke="#FF4D4F" stroke-width="22" stroke-linecap="round" opacity="0.2"/>
<g transform="translate(248 162) scale(0.85)">
 <path d="M128 242C128 242 215 159 215 91C215 42 177 12 128 12C79 12 41 42 41 91C41 159 128 242 128 242Z" fill="#FF4D4F"/>
 <circle cx="128" cy="93" r="38" fill="#FFFFFF"/>
</g><path d="M1040 122 L1046.0 140.0 L1064 146 L1046.0 152.0 L1040 170 L1034.0 152.0 L1016 146 L1034.0 140.0 Z" fill="#FBBF24"/>

</svg>