<svg xmlns="http://www.w3.org/2000/svg" width="1024" height="1024" viewBox="0 0 1024 1024" fill="none">
<defs>
<filter id="shadow" x="-20%" y="-20%" width="140%" height="150%"><feDropShadow dx="0" dy="18" stdDeviation="18" flood-color="#111827" flood-opacity="0.10"/></filter>
<filter id="smallShadow" x="-30%" y="-30%" width="160%" height="160%"><feDropShadow dx="0" dy="8" stdDeviation="8" flood-color="#111827" flood-opacity="0.12"/></filter>
<linearGradient id="redGrad" x1="0" y1="0" x2="1" y2="1"><stop offset="0" stop-color="#FF6B6D"/><stop offset="1" stop-color="#FF4D4F"/></linearGradient>
<linearGradient id="softGrad" x1="0" y1="0" x2="1" y2="1"><stop offset="0" stop-color="#FFF5F5"/><stop offset="1" stop-color="#FFE2E3"/></linearGradient>
</defs>


<path d="M 117,555 C 117,340.5 294.75,225 512,225 C 788.5,225 907,406.5 907,555 C 907,792.6 725.3,885 512,885 C 235.5,885 117,703.5 117,555 Z" fill="url(#softGrad)" opacity="1"/><g filter="url(#shadow)"><rect x="310" y="406" width="404" height="286" rx="36" fill="#FF4D4F"/><rect x="286" y="328" width="452" height="108" rx="28" fill="#E83F42"/><rect x="484" y="328" width="56" height="364" fill="#FBBF24"/><rect x="286" y="382" width="452" height="56" fill="#FBBF24"/><path d="M512 324C466 260 398 272 400 316C402 356 462 358 512 324Z" fill="#FFE8E8" stroke="#FF4D4F" stroke-width="12"/><path d="M512 324C558 260 626 272 624 316C622 356 562 358 512 324Z" fill="#FFE8E8" stroke="#FF4D4F" stroke-width="12"/></g><path d="M725 237 L729.5 250.5 L743 255 L729.5 259.5 L725 273 L720.5 259.5 L707 255 L720.5 250.5 Z" fill="#FBBF24"/>

</svg>