<svg xmlns="http://www.w3.org/2000/svg" width="1024" height="1024" viewBox="0 0 1024 1024" fill="none">
<defs>
<filter id="shadow" x="-20%" y="-20%" width="140%" height="150%"><feDropShadow dx="0" dy="18" stdDeviation="18" flood-color="#111827" flood-opacity="0.10"/></filter>
<filter id="smallShadow" x="-30%" y="-30%" width="160%" height="160%"><feDropShadow dx="0" dy="8" stdDeviation="8" flood-color="#111827" flood-opacity="0.12"/></filter>
<linearGradient id="redGrad" x1="0" y1="0" x2="1" y2="1"><stop offset="0" stop-color="#FF6B6D"/><stop offset="1" stop-color="#FF4D4F"/></linearGradient>
<linearGradient id="softGrad" x1="0" y1="0" x2="1" y2="1"><stop offset="0" stop-color="#FFF5F5"/><stop offset="1" stop-color="#FFE2E3"/></linearGradient>
</defs>


<path d="M 117,555 C 117,340.5 294.75,225 512,225 C 788.5,225 907,406.5 907,555 C 907,792.6 725.3,885 512,885 C 235.5,885 117,703.5 117,555 Z" fill="url(#softGrad)" opacity="1"/><g filter="url(#shadow)"><path d="M232 344L402 286L622 344L792 286V684L622 742L402 684L232 742V344Z" fill="#FFFFFF"/><path d="M402 286V684M622 344V742" stroke="#E5E7EB" stroke-width="12"/><path d="M272 470C360 426 492 508 592 462C670 426 706 386 760 408" stroke="#FF4D4F" stroke-width="18" stroke-linecap="round" fill="none" opacity="0.5"/></g>
<g transform="translate(410 210) scale(1.05)">
 <path d="M128 242C128 242 215 159 215 91C215 42 177 12 128 12C79 12 41 42 41 91C41 159 128 242 128 242Z" fill="#FF4D4F"/>
 <circle cx="128" cy="93" r="38" fill="#FFFFFF"/>
</g>

</svg>