<svg xmlns="http://www.w3.org/2000/svg" width="1024" height="1024" viewBox="0 0 1024 1024" fill="none">
<defs>
<filter id="shadow" x="-20%" y="-20%" width="140%" height="150%"><feDropShadow dx="0" dy="18" stdDeviation="18" flood-color="#111827" flood-opacity="0.10"/></filter>
<filter id="smallShadow" x="-30%" y="-30%" width="160%" height="160%"><feDropShadow dx="0" dy="8" stdDeviation="8" flood-color="#111827" flood-opacity="0.12"/></filter>
<linearGradient id="redGrad" x1="0" y1="0" x2="1" y2="1"><stop offset="0" stop-color="#FF6B6D"/><stop offset="1" stop-color="#FF4D4F"/></linearGradient>
<linearGradient id="softGrad" x1="0" y1="0" x2="1" y2="1"><stop offset="0" stop-color="#FFF5F5"/><stop offset="1" stop-color="#FFE2E3"/></linearGradient>
</defs>


<path d="M 117,555 C 117,340.5 294.75,225 512,225 C 788.5,225 907,406.5 907,555 C 907,792.6 725.3,885 512,885 C 235.5,885 117,703.5 117,555 Z" fill="url(#softGrad)" opacity="1"/><g filter="url(#shadow)"><rect x="292" y="312" width="440" height="270" rx="44" fill="#FFFFFF"/><circle cx="512" cy="448" r="70" fill="#FFE8E8"/><path d="M512 390V506M454 448H570" stroke="#FF4D4F" stroke-width="18" stroke-linecap="round"/><path d="M384 612H640" stroke="#E5E7EB" stroke-width="18" stroke-linecap="round"/></g><path d="M310 294L378 226M646 582L714 650" stroke="#FF4D4F" stroke-width="22" stroke-linecap="round"/><circle cx="392" cy="212" r="22" fill="#FF4D4F"/><circle cx="728" cy="664" r="22" fill="#FF4D4F"/>

</svg>