<svg xmlns="http://www.w3.org/2000/svg" width="1024" height="1024" viewBox="0 0 1024 1024" fill="none">
<defs>
<filter id="shadow" x="-20%" y="-20%" width="140%" height="150%"><feDropShadow dx="0" dy="18" stdDeviation="18" flood-color="#111827" flood-opacity="0.10"/></filter>
<filter id="smallShadow" x="-30%" y="-30%" width="160%" height="160%"><feDropShadow dx="0" dy="8" stdDeviation="8" flood-color="#111827" flood-opacity="0.12"/></filter>
<linearGradient id="redGrad" x1="0" y1="0" x2="1" y2="1"><stop offset="0" stop-color="#FF6B6D"/><stop offset="1" stop-color="#FF4D4F"/></linearGradient>
<linearGradient id="softGrad" x1="0" y1="0" x2="1" y2="1"><stop offset="0" stop-color="#FFF5F5"/><stop offset="1" stop-color="#FFE2E3"/></linearGradient>
</defs>


<path d="M 117,555 C 117,340.5 294.75,225 512,225 C 788.5,225 907,406.5 907,555 C 907,792.6 725.3,885 512,885 C 235.5,885 117,703.5 117,555 Z" fill="url(#softGrad)" opacity="1"/><g filter="url(#shadow)"><rect x="292" y="286" width="440" height="320" rx="48" fill="#FFFFFF"/><path d="M366 415C450 347 574 347 658 415" stroke="#FF4D4F" stroke-width="22" stroke-linecap="round" fill="none" opacity="0.25"/><path d="M426 478C476 444 548 444 598 478" stroke="#FF4D4F" stroke-width="22" stroke-linecap="round" fill="none"/><path d="M348 346L676 574" stroke="#1F2937" stroke-width="20" stroke-linecap="round"/></g><path d="M336 700H688" stroke="#E5E7EB" stroke-width="22" stroke-linecap="round"/>

</svg>