<svg xmlns="http://www.w3.org/2000/svg" width="1024" height="1024" viewBox="0 0 1024 1024" fill="none">
<defs>
<filter id="shadow" x="-20%" y="-20%" width="140%" height="150%"><feDropShadow dx="0" dy="18" stdDeviation="18" flood-color="#111827" flood-opacity="0.10"/></filter>
<filter id="smallShadow" x="-30%" y="-30%" width="160%" height="160%"><feDropShadow dx="0" dy="8" stdDeviation="8" flood-color="#111827" flood-opacity="0.12"/></filter>
<linearGradient id="redGrad" x1="0" y1="0" x2="1" y2="1"><stop offset="0" stop-color="#FF6B6D"/><stop offset="1" stop-color="#FF4D4F"/></linearGradient>
<linearGradient id="softGrad" x1="0" y1="0" x2="1" y2="1"><stop offset="0" stop-color="#FFF5F5"/><stop offset="1" stop-color="#FFE2E3"/></linearGradient>
</defs>


<path d="M 112,560 C 112,345.5 292.0,230 512,230 C 792.0,230 912,411.5 912,560 C 912,797.6 728.0,890 512,890 C 232.0,890 112,708.5 112,560 Z" fill="url(#softGrad)" opacity="1"/>
<g filter="url(#shadow)">
<rect x="260" y="168" width="300" height="520" rx="38" fill="#FFFFFF"/>
<rect x="282" y="222" width="256" height="432" rx="20" fill="#F7F8FA"/>
<rect x="374.0" y="192" width="72" height="8" rx="4" fill="#E5E7EB"/>
<rect x="292" y="250" width="110" height="110" rx="24" fill="#FFE8E8"/><rect x="418" y="250" width="110" height="110" rx="24" fill="#FFFFFF"/><rect x="292" y="385" width="236" height="32" rx="16" fill="#E5E7EB"/><rect x="292" y="438" width="180" height="28" rx="14" fill="#FF4D4F" opacity="0.86"/>
</g>

<g transform="translate(548 470) scale(1.2)" stroke="#FF4D4F" stroke-width="18" stroke-linecap="round" stroke-linejoin="round" fill="none">
 <path d="M12 18H42L62 126H183L206 54H61"/>
 <circle cx="83" cy="168" r="17" fill="#FFFFFF"/>
 <circle cx="170" cy="168" r="17" fill="#FFFFFF"/>
</g>
<g transform="translate(620 250) scale(0.75)">
<rect x="38" y="58" width="160" height="180" rx="28" fill="#FBBF24"/>
<path d="M74 82C74 35 94 16 118 16C142 16 162 35 162 82" stroke="#1F2937" stroke-width="18" stroke-linecap="round" fill="none"/>
</g><path d="M730 710 L735.0 725.0 L750 730 L735.0 735.0 L730 750 L725.0 735.0 L710 730 L725.0 725.0 Z" fill="#FF4D4F"/><circle cx="226" cy="258" r="16" fill="#FBBF24" opacity="0.9"/>

</svg>