<svg xmlns="http://www.w3.org/2000/svg" width="1024" height="1024" viewBox="0 0 1024 1024" fill="none">
<defs>
<filter id="shadow" x="-20%" y="-20%" width="140%" height="150%"><feDropShadow dx="0" dy="18" stdDeviation="18" flood-color="#111827" flood-opacity="0.10"/></filter>
<filter id="smallShadow" x="-30%" y="-30%" width="160%" height="160%"><feDropShadow dx="0" dy="8" stdDeviation="8" flood-color="#111827" flood-opacity="0.12"/></filter>
<linearGradient id="redGrad" x1="0" y1="0" x2="1" y2="1"><stop offset="0" stop-color="#FF6B6D"/><stop offset="1" stop-color="#FF4D4F"/></linearGradient>
<linearGradient id="softGrad" x1="0" y1="0" x2="1" y2="1"><stop offset="0" stop-color="#FFF5F5"/><stop offset="1" stop-color="#FFE2E3"/></linearGradient>
</defs>


<path d="M 117,555 C 117,340.5 294.75,225 512,225 C 788.5,225 907,406.5 907,555 C 907,792.6 725.3,885 512,885 C 235.5,885 117,703.5 117,555 Z" fill="url(#softGrad)" opacity="1"/>
<g transform="translate(302 380) scale(1.62)" filter="url(#smallShadow)">
 <rect x="0" y="0" width="260" height="164" rx="26" fill="#FF4D4F"/>
 <rect x="0" y="42" width="260" height="34" fill="#1F2937" opacity="0.9"/>
 <rect x="32" y="106" width="92" height="14" rx="7" fill="#FFFFFF" opacity="0.92"/>
 <rect x="32" y="130" width="156" height="12" rx="6" fill="#FFFFFF" opacity="0.55"/>
 <circle cx="204" cy="120" r="22" fill="#FBBF24" opacity="0.95"/>
 <circle cx="224" cy="120" r="22" fill="#FFFFFF" opacity="0.45"/>
</g><circle cx="512" cy="300" r="92" fill="#FF4D4F"/><path d="M480.72 268.72 L543.28 331.28 M543.28 268.72 L480.72 331.28" stroke="#FFFFFF" stroke-width="18" stroke-linecap="round" fill="none"/><path d="M330 720H694" stroke="#E5E7EB" stroke-width="22" stroke-linecap="round"/><path d="M430 776H594" stroke="#E5E7EB" stroke-width="18" stroke-linecap="round"/>

</svg>