<svg xmlns="http://www.w3.org/2000/svg" width="1024" height="1024" viewBox="0 0 1024 1024" fill="none">
<defs>
<filter id="shadow" x="-20%" y="-20%" width="140%" height="150%"><feDropShadow dx="0" dy="18" stdDeviation="18" flood-color="#111827" flood-opacity="0.10"/></filter>
<filter id="smallShadow" x="-30%" y="-30%" width="160%" height="160%"><feDropShadow dx="0" dy="8" stdDeviation="8" flood-color="#111827" flood-opacity="0.12"/></filter>
<linearGradient id="redGrad" x1="0" y1="0" x2="1" y2="1"><stop offset="0" stop-color="#FF6B6D"/><stop offset="1" stop-color="#FF4D4F"/></linearGradient>
<linearGradient id="softGrad" x1="0" y1="0" x2="1" y2="1"><stop offset="0" stop-color="#FFF5F5"/><stop offset="1" stop-color="#FFE2E3"/></linearGradient>
</defs>


<path d="M 117,555 C 117,340.5 294.75,225 512,225 C 788.5,225 907,406.5 907,555 C 907,792.6 725.3,885 512,885 C 235.5,885 117,703.5 117,555 Z" fill="url(#softGrad)" opacity="1"/><g filter="url(#shadow)"><rect x="244" y="318" width="536" height="352" rx="46" fill="#FFFFFF"/><circle cx="358" cy="458" r="54" fill="#FFE8E8"/><rect x="442" y="410" width="216" height="24" rx="12" fill="#E5E7EB"/><rect x="442" y="462" width="168" height="24" rx="12" fill="#E5E7EB"/><rect x="326" y="570" width="372" height="58" rx="29" fill="#FF4D4F"/></g><g transform="translate(308 250) scale(1.05)"><path d="M33 4L42 22L62 25L47 39L51 59L33 49L15 59L19 39L4 25L24 22L33 4Z" fill="#FBBF24"/><path transform="translate(84 0)" d="M33 4L42 22L62 25L47 39L51 59L33 49L15 59L19 39L4 25L24 22L33 4Z" fill="#FBBF24"/><path transform="translate(168 0)" d="M33 4L42 22L62 25L47 39L51 59L33 49L15 59L19 39L4 25L24 22L33 4Z" fill="#FBBF24"/><path transform="translate(252 0)" d="M33 4L42 22L62 25L47 39L51 59L33 49L15 59L19 39L4 25L24 22L33 4Z" fill="#FBBF24"/></g>

</svg>