<svg xmlns="http://www.w3.org/2000/svg" width="1440" height="640" viewBox="0 0 1440 640" fill="none">
<defs>
<filter id="shadow" x="-20%" y="-20%" width="140%" height="150%"><feDropShadow dx="0" dy="18" stdDeviation="18" flood-color="#111827" flood-opacity="0.10"/></filter>
<filter id="smallShadow" x="-30%" y="-30%" width="160%" height="160%"><feDropShadow dx="0" dy="8" stdDeviation="8" flood-color="#111827" flood-opacity="0.12"/></filter>
<linearGradient id="redGrad" x1="0" y1="0" x2="1" y2="1"><stop offset="0" stop-color="#FF6B6D"/><stop offset="1" stop-color="#FF4D4F"/></linearGradient>
<linearGradient id="softGrad" x1="0" y1="0" x2="1" y2="1"><stop offset="0" stop-color="#FFF5F5"/><stop offset="1" stop-color="#FFE2E3"/></linearGradient>
</defs>


<rect width="1440" height="640" rx="80" fill="url(#redGrad)"/><circle cx="1190" cy="110" r="190" fill="#FFFFFF" opacity="0.12"/><circle cx="116" cy="560" r="230" fill="#1F2937" opacity="0.08"/>
<g transform="translate(840 150) scale(1.25)"><path d="M24 124H436V206C406 206 382 230 382 260C382 290 406 314 436 314V396H24V314C54 314 78 290 78 260C78 230 54 206 24 206V124Z" fill="#FFFFFF" opacity="0.94"/><circle cx="170" cy="226" r="28" fill="#FF4D4F"/><circle cx="292" cy="296" r="28" fill="#FF4D4F"/><path d="M160 324L304 198" stroke="#FF4D4F" stroke-width="20" stroke-linecap="round"/></g>
<circle cx="212" cy="210" r="78" fill="#FFFFFF" opacity="0.16"/><path d="M324 104 L331.0 125.0 L352 132 L331.0 139.0 L324 160 L317.0 139.0 L296 132 L317.0 125.0 Z" fill="#FBBF24"/><path d="M764 458 L769.5 474.5 L786 480 L769.5 485.5 L764 502 L758.5 485.5 L742 480 L758.5 474.5 Z" fill="#FFFFFF"/>

</svg>