<svg xmlns="http://www.w3.org/2000/svg" width="24" height="24" viewBox="0 0 24 24" fill="none" color="#111111">
  <path fill="currentColor" d="M16.6 13.2c0-2 1.6-3 1.7-3.1-1-.1-2-.6-2.6-1.3-.5-.6-1.3-1-2.1-1-1 0-1.8.6-2.3.6-.5 0-1.4-.6-2.3-.6-1.2 0-2.3.7-3 1.8-1.3 2.3-.3 5.7 1 7.6.6.9 1.4 1.9 2.4 1.9.9 0 1.3-.6 2.4-.6s1.4.6 2.4.6 1.7-.9 2.4-1.8c.7-1 1-2 1-2.1-.1-.1-2-.8-2-3Z"/>
  <path fill="currentColor" d="M14.3 6.8c.5-.6.8-1.4.7-2.2-.7 0-1.5.4-2 .9-.4.5-.8 1.3-.7 2 .8.1 1.5-.3 2-.7Z"/>
</svg>