<svg xmlns="http://www.w3.org/2000/svg" width="24" height="24" viewBox="0 0 24 24" fill="none">
  <path fill="#4285F4" d="M21.6 12.2c0-.7-.1-1.3-.2-1.9H12v3.6h5.4a4.6 4.6 0 0 1-2 3v2.4h3.2c1.9-1.7 3-4.3 3-7.1Z"/>
  <path fill="#34A853" d="M12 22c2.7 0 5-0.9 6.6-2.5l-3.2-2.4c-.9.6-2 1-3.4 1-2.6 0-4.8-1.8-5.6-4.1H3.1v2.5A10 10 0 0 0 12 22Z"/>
  <path fill="#FBBC05" d="M6.4 14a6 6 0 0 1 0-3.9V7.6H3.1a10 10 0 0 0 0 8.9L6.4 14Z"/>
  <path fill="#EA4335" d="M12 5.9c1.5 0 2.8.5 3.8 1.5l2.9-2.9A9.8 9.8 0 0 0 12 2 10 10 0 0 0 3.1 7.6l3.3 2.5C7.2 7.7 9.4 5.9 12 5.9Z"/>
</svg>