<svg xmlns="http://www.w3.org/2000/svg" width="24" height="24" viewBox="0 0 24 24" fill="none" color="#FF4B4B">
  <g stroke="currentColor" stroke-width="1.8" stroke-linecap="round" stroke-linejoin="round">
    <circle cx="12" cy="12" r="3"/>
    <path d="M19 12a7.1 7.1 0 0 0-.1-1l2-1.5-2-3.5-2.4 1a7.3 7.3 0 0 0-1.8-1L14.4 3h-4.8L9.3 6a7.3 7.3 0 0 0-1.8 1l-2.4-1-2 3.5 2 1.5a7.1 7.1 0 0 0 0 2l-2 1.5 2 3.5 2.4-1a7.3 7.3 0 0 0 1.8 1l.3 3h4.8l.3-3a7.3 7.3 0 0 0 1.8-1l2.4 1 2-3.5-2-1.5c.1-.3.1-.7.1-1Z"/>
  </g>
</svg>
